<svg height="1134" width="720" xmlns="http://www.w3.org/2000/svg">
<rect height="1134" fill="#555" width="720"></rect>
<text fill="#7f7" font-family="Courier New" font-size="12" xml:space="preserve">
<tspan x="10" y="26">5 megabytes installed</tspan>
<tspan x="10" y="42"></tspan>
<tspan x="10" y="58">node_modules</tspan>
<tspan x="10" y="74">└─┬ http-framework@1.2.0 </tspan>
<tspan x="10" y="90">  ├── basic@0.0.3 </tspan>
<tspan x="10" y="106">  ├─┬ body@2.0.1 </tspan>
<tspan x="10" y="122">  │ ├── continuable@0.2.4 </tspan>
<tspan x="10" y="138">  │ └── qs@0.6.6 </tspan>
<tspan x="10" y="154">  ├─┬ config-chain@1.1.11 </tspan>
<tspan x="10" y="170">  │ ├── ini@1.3.4 </tspan>
<tspan x="10" y="186">  │ └── proto-list@1.2.4 </tspan>
<tspan x="10" y="202">  ├── cookies@0.3.8 </tspan>
<tspan x="10" y="218">  ├─┬ corsify@1.0.2 </tspan>
<tspan x="10" y="234">  │ └─┬ http-methods@0.1.0 </tspan>
<tspan x="10" y="250">  │   ├── body@0.1.0 </tspan>
<tspan x="10" y="266">  │   └─┬ content-types@0.1.0 </tspan>
<tspan x="10" y="282">  │     └─┬ iterators@0.1.0 </tspan>
<tspan x="10" y="298">  │       └── ap@0.1.0 </tspan>
<tspan x="10" y="314">  ├─┬ csrf-lite@0.1.2 </tspan>
<tspan x="10" y="330">  │ └── scmp@1.0.2 </tspan>
<tspan x="10" y="346">  ├─┬ error@2.0.4 </tspan>
<tspan x="10" y="362">  │ └─┬ xtend@2.1.2 </tspan>
<tspan x="10" y="378">  │   └── object-keys@0.4.0 </tspan>
<tspan x="10" y="394">  ├─┬ filed@0.1.0 </tspan>
<tspan x="10" y="410">  │ └── mime@1.3.4 </tspan>
<tspan x="10" y="426">  ├─┬ generic-session@0.0.2 </tspan>
<tspan x="10" y="442">  │ ├── keygrip@0.2.4 </tspan>
<tspan x="10" y="458">  │ └── lru-cache@2.2.4 </tspan>
<tspan x="10" y="474">  ├─┬ hyperscript@1.3.2 </tspan>
<tspan x="10" y="490">  │ ├── browser-split@0.0.0 </tspan>
<tspan x="10" y="506">  │ ├─┬ class-list@0.1.1 </tspan>
<tspan x="10" y="522">  │ │ └── indexof@0.0.1 </tspan>
<tspan x="10" y="538">  │ ├─┬ data-set@0.2.2 </tspan>
<tspan x="10" y="554">  │ │ ├─┬ individual@0.1.1 </tspan>
<tspan x="10" y="570">  │ │ │ └── global@0.1.5 </tspan>
<tspan x="10" y="586">  │ │ └── weakmap@0.0.6 </tspan>
<tspan x="10" y="602">  │ └── html-element@1.2.8 </tspan>
<tspan x="10" y="618">  ├─┬ json-globals@0.2.1 </tspan>
<tspan x="10" y="634">  │ └─┬ global@2.0.7 </tspan>
<tspan x="10" y="650">  │   └─┬ min-document@0.2.8 </tspan>
<tspan x="10" y="666">  │     └─┬ tape@1.0.4 </tspan>
<tspan x="10" y="682">  │       ├── deep-equal@0.0.0 </tspan>
<tspan x="10" y="698">  │       ├── defined@0.0.0 </tspan>
<tspan x="10" y="714">  │       ├── jsonify@0.0.0 </tspan>
<tspan x="10" y="730">  │       └── through@2.3.8 </tspan>
<tspan x="10" y="746">  ├─┬ media-types@1.0.3 </tspan>
<tspan x="10" y="762">  │ └── negotiator@0.2.8 </tspan>
<tspan x="10" y="778">  ├─┬ multiparty@3.1.2 </tspan>
<tspan x="10" y="794">  │ ├─┬ readable-stream@1.1.14 </tspan>
<tspan x="10" y="810">  │ │ ├── core-util-is@1.0.2 </tspan>
<tspan x="10" y="826">  │ │ ├── inherits@2.0.3 </tspan>
<tspan x="10" y="842">  │ │ ├── isarray@0.0.1 </tspan>
<tspan x="10" y="858">  │ │ └── string_decoder@0.10.31 </tspan>
<tspan x="10" y="874">  │ └── stream-counter@0.2.0 </tspan>
<tspan x="10" y="890">  ├── process@0.5.2 </tspan>
<tspan x="10" y="906">  ├── pwd@0.0.2 </tspan>
<tspan x="10" y="922">  ├── redirecter@0.2.3 </tspan>
<tspan x="10" y="938">  ├─┬ redsess@0.3.3 </tspan>
<tspan x="10" y="954">  │ └── redis@0.8.6 </tspan>
<tspan x="10" y="970">  ├─┬ routes-router@1.5.4 </tspan>
<tspan x="10" y="986">  │ └── routes@0.2.0 </tspan>
<tspan x="10" y="1002">  ├── send-data@3.1.2 </tspan>
<tspan x="10" y="1018">  ├─┬ st@0.2.6 </tspan>
<tspan x="10" y="1034">  │ ├─┬ async-cache@0.1.5 </tspan>
<tspan x="10" y="1050">  │ │ └── lru-cache@2.3.1 </tspan>
<tspan x="10" y="1066">  │ ├── fd@0.0.2 </tspan>
<tspan x="10" y="1082">  │ ├── graceful-fs@1.2.3 </tspan>
<tspan x="10" y="1098">  │ └── mime@1.2.11 </tspan>
<tspan x="10" y="1114">  └── string-template@0.1.3</tspan>
</text>
</svg>
